<svg width="22" height="22" viewBox="0 0 22 22" fill="none" xmlns="http://www.w3.org/2000/svg">
<path d="M10.1251 11C10.1251 11.2984 10.2437 11.5845 10.4546 11.7955C10.6656 12.0065 10.9518 12.125 11.2501 12.125C11.5485 12.125 11.8346 12.0065 12.0456 11.7955C12.2566 11.5845 12.3751 11.2984 12.3751 11C12.3751 10.7016 12.2566 10.4155 12.0456 10.2045C11.8346 9.99353 11.5485 9.875 11.2501 9.875C10.9518 9.875 10.6656 9.99353 10.4546 10.2045C10.2437 10.4155 10.1251 10.7016 10.1251 11ZM14.8126 11C14.8126 11.2984 14.9312 11.5845 15.1421 11.7955C15.3531 12.0065 15.6393 12.125 15.9376 12.125C16.236 12.125 16.5221 12.0065 16.7331 11.7955C16.9441 11.5845 17.0626 11.2984 17.0626 11C17.0626 10.7016 16.9441 10.4155 16.7331 10.2045C16.5221 9.99353 16.236 9.875 15.9376 9.875C15.6393 9.875 15.3531 9.99353 15.1421 10.2045C14.9312 10.4155 14.8126 10.7016 14.8126 11ZM5.43763 11C5.43763 11.2984 5.55616 11.5845 5.76714 11.7955C5.97812 12.0065 6.26426 12.125 6.56263 12.125C6.861 12.125 7.14715 12.0065 7.35813 11.7955C7.56911 11.5845 7.68763 11.2984 7.68763 11C7.68763 10.7016 7.56911 10.4155 7.35813 10.2045C7.14715 9.99353 6.861 9.875 6.56263 9.875C6.26426 9.875 5.97812 9.99353 5.76714 10.2045C5.55616 10.4155 5.43763 10.7016 5.43763 11ZM20.9345 6.93125C20.4048 5.67266 19.6454 4.54297 18.6775 3.57266C17.7163 2.60796 16.5752 1.84114 15.3189 1.31563C14.0298 0.774219 12.6611 0.5 11.2501 0.5H11.2033C9.78295 0.507031 8.40716 0.788281 7.11341 1.34141C5.86785 1.87232 4.73747 2.64049 3.78529 3.60312C2.8267 4.57109 2.07435 5.69609 1.55404 6.95C1.01498 8.24844 0.743102 9.62891 0.750133 11.0492C0.758086 12.6769 1.14316 14.2806 1.87513 15.7344V19.2969C1.87513 19.5828 1.98872 19.857 2.19091 20.0592C2.3931 20.2614 2.66732 20.375 2.95326 20.375H6.5181C7.97192 21.107 9.57559 21.492 11.2033 21.5H11.2525C12.6564 21.5 14.0181 21.2281 15.3001 20.6961C16.5501 20.1768 17.6869 19.419 18.647 18.4648C19.615 17.5063 20.3767 16.3859 20.9087 15.1367C21.4619 13.843 21.7431 12.4672 21.7501 11.0469C21.7572 9.61953 21.4806 8.23438 20.9345 6.93125ZM17.3931 17.1969C15.7501 18.8234 13.5704 19.7188 11.2501 19.7188H11.2103C9.79701 19.7117 8.3931 19.3602 7.15326 18.6992L6.95638 18.5938H3.65638V15.2938L3.55091 15.0969C2.88998 13.857 2.53841 12.4531 2.53138 11.0398C2.52201 8.70312 3.41498 6.50937 5.05326 4.85703C6.6892 3.20469 8.87591 2.29062 11.2126 2.28125H11.2525C12.4244 2.28125 13.5611 2.50859 14.6322 2.95859C15.6775 3.39687 16.615 4.02734 17.4212 4.83359C18.2251 5.6375 18.8579 6.57734 19.2962 7.62266C19.7509 8.70547 19.9783 9.85391 19.9736 11.0398C19.9595 13.3742 19.0431 15.5609 17.3931 17.1969Z" fill="#8C8C8C"/>
</svg>
