<svg width="19" height="20" viewBox="0 0 19 20" fill="none" xmlns="http://www.w3.org/2000/svg">
<path d="M18.1383 10.5098C18.532 9.98946 18.75 9.35196 18.75 8.68868C18.75 7.63634 18.1617 6.64024 17.2148 6.08477C16.9711 5.94179 16.6935 5.86654 16.4109 5.8668H10.7906L10.9313 2.98633C10.9641 2.29024 10.718 1.6293 10.2398 1.1254C10.0052 0.877026 9.72212 0.679412 9.40808 0.544769C9.09405 0.410126 8.75574 0.341314 8.41406 0.342585C7.19531 0.342585 6.11719 1.1629 5.79375 2.33712L3.78047 9.62618H0.75C0.335156 9.62618 0 9.96134 0 10.3762V18.9074C0 19.3223 0.335156 19.6574 0.75 19.6574H14.843C15.0586 19.6574 15.2695 19.6152 15.4641 19.5309C16.5797 19.0551 17.2992 17.9652 17.2992 16.7559C17.2992 16.4606 17.257 16.1699 17.1727 15.8887C17.5664 15.3684 17.7844 14.7309 17.7844 14.0676C17.7844 13.7723 17.7422 13.4816 17.6578 13.2004C18.0516 12.6801 18.2695 12.0426 18.2695 11.3793C18.2648 11.084 18.2227 10.791 18.1383 10.5098ZM1.6875 17.9699V11.3137H3.58594V17.9699H1.6875ZM16.6031 9.69649L16.0898 10.1418L16.4156 10.7371C16.523 10.9332 16.5786 11.1534 16.5773 11.377C16.5773 11.7637 16.4086 12.1316 16.118 12.3848L15.6047 12.8301L15.9305 13.4254C16.0378 13.6215 16.0935 13.8417 16.0922 14.0652C16.0922 14.452 15.9234 14.8199 15.6328 15.0731L15.1195 15.5184L15.4453 16.1137C15.5526 16.3098 15.6083 16.53 15.607 16.7535C15.607 17.2785 15.2977 17.752 14.8195 17.9676H5.08594V11.2387L7.41797 2.78946C7.4781 2.5729 7.60719 2.38184 7.78566 2.24523C7.96414 2.10863 8.18228 2.03392 8.40703 2.03243C8.58516 2.03243 8.76094 2.08399 8.90156 2.18946C9.13359 2.3629 9.25781 2.6254 9.24375 2.9043L9.01875 7.5543H16.3875C16.8047 7.80977 17.0625 8.24102 17.0625 8.68868C17.0625 9.0754 16.8938 9.44102 16.6031 9.69649Z" fill="#8C8C8C"/>
</svg>
