<svg width="20" height="20" viewBox="0 0 20 20" fill="none" xmlns="http://www.w3.org/2000/svg">
<path d="M19.062 4.87422L15.251 1.06328C15.0752 0.8875 14.8596 0.758594 14.6252 0.688281V0.625H1.50024C1.0854 0.625 0.750244 0.960156 0.750244 1.375V18.625C0.750244 19.0398 1.0854 19.375 1.50024 19.375H18.7502C19.1651 19.375 19.5002 19.0398 19.5002 18.625V5.93359C19.5002 5.53516 19.3432 5.15547 19.062 4.87422ZM7.12524 2.3125H13.1252V4.75H7.12524V2.3125ZM17.8127 17.6875H2.43774V2.3125H5.62524V5.5C5.62524 5.91484 5.9604 6.25 6.37524 6.25H13.8752C14.2901 6.25 14.6252 5.91484 14.6252 5.5V2.82344L17.8127 6.01094V17.6875ZM10.1252 8.35938C8.26196 8.35938 6.75024 9.87109 6.75024 11.7344C6.75024 13.5977 8.26196 15.1094 10.1252 15.1094C11.9885 15.1094 13.5002 13.5977 13.5002 11.7344C13.5002 9.87109 11.9885 8.35938 10.1252 8.35938ZM10.1252 13.6094C9.08931 13.6094 8.25024 12.7703 8.25024 11.7344C8.25024 10.6984 9.08931 9.85938 10.1252 9.85938C11.1612 9.85938 12.0002 10.6984 12.0002 11.7344C12.0002 12.7703 11.1612 13.6094 10.1252 13.6094Z" fill="#8C8C8C"/>
</svg>
