<svg width="18" height="20" viewBox="0 0 18 20" fill="none" xmlns="http://www.w3.org/2000/svg">
<path d="M14.5627 13.5625C13.8948 13.5625 13.2784 13.7969 12.7956 14.1883L7.93931 10.675C8.02062 10.2287 8.02062 9.77133 7.93931 9.325L12.7956 5.81172C13.2784 6.20312 13.8948 6.4375 14.5627 6.4375C16.1143 6.4375 17.3752 5.17656 17.3752 3.625C17.3752 2.07344 16.1143 0.8125 14.5627 0.8125C13.0112 0.8125 11.7502 2.07344 11.7502 3.625C11.7502 3.89687 11.7877 4.15703 11.8604 4.40547L7.2479 7.74531C6.56353 6.83828 5.47603 6.25 4.25024 6.25C2.17837 6.25 0.500244 7.92812 0.500244 10C0.500244 12.0719 2.17837 13.75 4.25024 13.75C5.47603 13.75 6.56353 13.1617 7.2479 12.2547L11.8604 15.5945C11.7877 15.843 11.7502 16.1055 11.7502 16.375C11.7502 17.9266 13.0112 19.1875 14.5627 19.1875C16.1143 19.1875 17.3752 17.9266 17.3752 16.375C17.3752 14.8234 16.1143 13.5625 14.5627 13.5625ZM14.5627 2.40625C15.2354 2.40625 15.7815 2.95234 15.7815 3.625C15.7815 4.29766 15.2354 4.84375 14.5627 4.84375C13.8901 4.84375 13.344 4.29766 13.344 3.625C13.344 2.95234 13.8901 2.40625 14.5627 2.40625ZM4.25024 12.0625C3.11353 12.0625 2.18774 11.1367 2.18774 10C2.18774 8.86328 3.11353 7.9375 4.25024 7.9375C5.38696 7.9375 6.31274 8.86328 6.31274 10C6.31274 11.1367 5.38696 12.0625 4.25024 12.0625ZM14.5627 17.5938C13.8901 17.5938 13.344 17.0477 13.344 16.375C13.344 15.7023 13.8901 15.1562 14.5627 15.1562C15.2354 15.1562 15.7815 15.7023 15.7815 16.375C15.7815 17.0477 15.2354 17.5938 14.5627 17.5938Z" fill="#8C8C8C"/>
</svg>
